<svg width="22" height="14" viewBox="0 0 22 14" fill="none" xmlns="http://www.w3.org/2000/svg">
<path d="M5 4.75C5 3.60694 5.23295 2.93461 5.53081 2.56225C5.79456 2.23252 6.22061 2 7 2C7.77939 2 8.20544 2.23252 8.46919 2.56225C8.76705 2.93461 9 3.60694 9 4.75C9 6.38175 8.52559 7.09474 8.20053 7.48482C8.11794 7.58392 8.04056 7.66703 7.95419 7.75979L7.90689 7.81065C7.82152 7.90256 7.6833 8.05137 7.57679 8.21705C7.45873 8.40071 7.30477 8.71754 7.35742 9.12367C7.40794 9.51339 7.62418 9.7884 7.79289 9.95711C8.28025 10.4445 8.86083 10.7828 9.38872 11.0468C9.6547 11.1798 9.92391 11.3017 10.1704 11.4134C10.4232 11.5279 10.6512 11.6311 10.8653 11.7382C11.3038 11.9575 11.5875 12.1473 11.7632 12.3433C11.909 12.5059 12 12.692 12 13C12 13.5523 12.4477 14 13 14C13.5523 14 14 13.5523 14 13C14 12.183 13.716 11.5254 13.2524 11.0082C12.8187 10.5245 12.2587 10.1988 11.7597 9.94932C11.5108 9.82487 11.2528 9.70801 11.0123 9.59908L10.9956 9.59153C10.7441 9.47759 10.5094 9.37102 10.2832 9.25792C10.0379 9.13527 9.82133 9.01382 9.63272 8.88693C9.66669 8.84824 9.70168 8.80753 9.73697 8.76518C10.3494 8.03026 11 6.86825 11 4.75C11 3.39331 10.7331 2.19064 10.031 1.31294C9.29481 0.392609 8.22086 0 7 0C5.77914 0 4.70519 0.392609 3.969 1.31294C3.26692 2.19064 3 3.39331 3 4.75C3 6.86825 3.65059 8.03026 4.26303 8.76518C4.29832 8.80754 4.33331 8.84824 4.36728 8.88693C4.17867 9.01382 3.96213 9.13527 3.71685 9.25792C3.49064 9.37102 3.25594 9.47759 3.0044 9.59153L2.9877 9.59909C2.7472 9.70801 2.48918 9.82487 2.24029 9.94932C1.74134 10.1988 1.18127 10.5245 0.747618 11.0082C0.283991 11.5254 0 12.183 0 13C0 13.5523 0.447715 14 1 14C1.55228 14 2 13.5523 2 13C2 12.692 2.09101 12.5059 2.23676 12.3433C2.41248 12.1473 2.69616 11.9575 3.13471 11.7382C3.3488 11.6311 3.57677 11.5279 3.82958 11.4134C4.07609 11.3017 4.3453 11.1798 4.61128 11.0468C5.13917 10.7828 5.71975 10.4445 6.20711 9.95711C6.37582 9.7884 6.59206 9.51339 6.64258 9.12367C6.69523 8.71754 6.54127 8.40071 6.42321 8.21705C6.3167 8.05137 6.17848 7.90256 6.09311 7.81065L6.04585 7.75983C5.95946 7.66705 5.88207 7.58393 5.79947 7.48482C5.47441 7.09474 5 6.38175 5 4.75Z" fill="white"/>
<path d="M17 1.79999C17.5523 1.79999 18 2.2477 18 2.79999V4.99999H20.2C20.7523 4.99999 21.2 5.4477 21.2 5.99999C21.2 6.55227 20.7523 6.99999 20.2 6.99999H18V9.19999C18 9.75227 17.5523 10.2 17 10.2C16.4477 10.2 16 9.75227 16 9.19999V6.99999H13.8C13.2477 6.99999 12.8 6.55227 12.8 5.99999C12.8 5.4477 13.2477 4.99999 13.8 4.99999H16V2.79999C16 2.2477 16.4477 1.79999 17 1.79999Z" fill="white"/>
</svg>
