<svg width="21" height="35" viewBox="0 0 21 35" fill="none" xmlns="http://www.w3.org/2000/svg">
<path d="M21 28.1139C19.2429 28.1139 17.5427 28.129 15.8442 28.1038C15.3551 28.0971 15.1256 28.206 14.9933 28.7385C14.4673 30.8553 13.3702 32.627 11.6348 33.9852C11.2462 34.29 10.9079 34.6617 10.5494 35C7.47404 32.4261 7.47404 32.4261 5.76717 28.1122C4.81742 28.1122 3.84422 28.1122 2.87102 28.1122C1.92797 28.1122 0.9866 28.1122 0 28.1122C0 19.6117 0 11.1782 0 2.661C1.41206 3.39785 2.49414 4.41938 3.39531 5.62847C4.66499 7.33326 5.46399 9.2323 5.68174 11.3708C5.92127 13.7254 6.2144 16.0732 6.48409 18.4177C6.05025 18.54 5.63317 18.5986 5.27136 18.7711C4.44221 19.1646 4.12395 19.9818 4.42546 20.789C4.73534 21.6213 5.69682 22.1773 6.50586 21.9194C6.75042 21.8407 6.97487 21.5543 7.1139 21.3098C8.67337 18.5667 9.48744 15.6026 9.48073 12.456C9.47571 9.6677 9.32831 6.87943 9.23953 4.09282C9.19263 2.60909 9.44221 1.22081 10.4992 0C11.526 1.13541 11.8107 2.46507 11.7739 3.88014C11.7052 6.55622 11.5695 9.2323 11.5209 11.9084C11.4623 15.1739 12.2161 18.2536 13.7839 21.129C14.0636 21.6414 14.3216 22.0785 15.0385 21.9629C15.7605 21.8474 16.2931 21.5459 16.5712 20.851C16.8275 20.2112 16.7521 19.59 16.2245 19.1763C15.7672 18.8179 15.1826 18.6254 14.5494 18.3055C14.732 16.6627 14.8811 14.8624 15.1457 13.0806C15.3786 11.5199 15.5779 9.92392 16.0837 8.44187C16.9363 5.94163 18.6198 4.03589 20.9983 2.63756C21 11.1565 21 19.5849 21 28.1139ZM1.71692 6.47584C1.71692 10.9203 1.71692 15.1438 1.71692 19.3505C2.34003 19.5364 2.65997 19.3806 2.93635 18.8012C3.17588 18.2988 3.61809 17.8416 4.0737 17.5084C4.47739 17.2136 4.57119 16.9457 4.50754 16.4818C4.25293 14.5794 4.1005 12.6603 3.78057 10.7679C3.52094 9.2256 2.78057 7.86412 1.71692 6.47584ZM19.1993 19.3907C19.1993 15.1086 19.1993 10.8935 19.1993 6.48589C18.0905 7.98134 17.3367 9.44163 17.0871 11.1096C16.8124 12.9517 16.598 14.8038 16.402 16.656C16.3769 16.8854 16.5745 17.1818 16.7471 17.3778C17.2982 18.0057 17.8861 18.6002 18.4606 19.2081C18.4087 19.2684 18.3568 19.3287 18.3049 19.389C18.5779 19.3907 18.8526 19.3907 19.1993 19.3907ZM1.70687 21.2495C1.70687 22.9995 1.70687 24.6876 1.70687 26.399C3.04523 26.399 4.33333 26.399 5.58124 26.399C5.71189 25.5115 5.83417 24.6909 5.96147 23.8301C4.63149 23.599 3.40536 23.1234 2.87437 21.762C2.62311 21.1172 2.30318 21.0385 1.70687 21.2495ZM14.9799 23.8318C15.1089 24.7093 15.2345 25.5517 15.3618 26.4074C16.6549 26.4074 17.9179 26.4074 19.196 26.4074C19.196 24.644 19.196 22.9342 19.196 21.0553C18.8057 21.1892 18.3099 21.216 18.2328 21.4086C17.6399 22.8907 16.4539 23.5304 14.9799 23.8318ZM8.59799 22.6328C9.06868 22.9493 9.60804 23.3378 10.1742 23.6794C10.33 23.7732 10.6231 23.8134 10.7605 23.728C11.3618 23.3579 11.9296 22.9325 12.4238 22.5892C11.7621 21.0017 11.1407 19.5112 10.5209 18.0242C9.8995 19.5146 9.27638 21.005 8.59799 22.6328ZM11.392 31.8718C12.4288 30.733 13.0201 29.6294 13.2127 28.2663C12.5645 28.2663 11.9983 28.2663 11.392 28.2663C11.392 29.4268 11.392 30.5287 11.392 31.8718ZM7.70352 28.2596C7.95812 29.6093 8.45394 30.7447 9.47906 31.7445C9.47906 30.4835 9.47906 29.3632 9.47906 28.2596C8.86767 28.2596 8.32328 28.2596 7.70352 28.2596ZM9.61976 26.4309C9.35008 24.999 8.88777 24.4916 7.68174 24.3426C7.59966 25.0275 7.51926 25.7108 7.43383 26.4309C8.25125 26.4309 8.90955 26.4309 9.61976 26.4309ZM11.3886 26.3873C12.134 26.3873 12.809 26.3873 13.5611 26.3873C13.4673 25.6337 13.3853 24.9656 13.2965 24.2505C12.0419 24.5452 11.5427 25.2854 11.3886 26.3873Z" fill="#2E60B3"/>
</svg>
