<svg class="my-auto" width="14" height="14" viewBox="0 0 14 14" fill="none" xmlns="http://www.w3.org/2000/svg">
    <path fill-rule="evenodd" clip-rule="evenodd" d="M13.364 2.04994C13.7545 1.65942 13.7545 1.02625 13.364 0.635728C12.9734 0.245203 12.3403 0.245203 11.9497 0.635728L7.00003 5.58543L2.05033 0.635728C1.6598 0.245203 1.02664 0.245203 0.636113 0.635728C0.245589 1.02625 0.245589 1.65942 0.636113 2.04994L5.58582 6.99965L0.636033 11.9494C0.245509 12.34 0.245508 12.9731 0.636033 13.3636C1.02656 13.7542 1.65972 13.7542 2.05025 13.3636L7.00003 8.41386L11.9498 13.3636C12.3403 13.7542 12.9735 13.7542 13.364 13.3636C13.7546 12.9731 13.7546 12.34 13.364 11.9494L8.41425 6.99965L13.364 2.04994Z" fill="#1D2229"/>
    <path fill-rule="evenodd" clip-rule="evenodd" d="M13.364 2.04994C13.7545 1.65942 13.7545 1.02625 13.364 0.635728C12.9734 0.245203 12.3403 0.245203 11.9497 0.635728L7.00003 5.58543L2.05033 0.635728C1.6598 0.245203 1.02664 0.245203 0.636113 0.635728C0.245589 1.02625 0.245589 1.65942 0.636113 2.04994L5.58582 6.99965L0.636033 11.9494C0.245509 12.34 0.245508 12.9731 0.636033 13.3636C1.02656 13.7542 1.65972 13.7542 2.05025 13.3636L7.00003 8.41386L11.9498 13.3636C12.3403 13.7542 12.9735 13.7542 13.364 13.3636C13.7546 12.9731 13.7546 12.34 13.364 11.9494L8.41425 6.99965L13.364 2.04994Z" fill="black" fill-opacity="0.2"/>
</svg>