<svg width="20" height="20" viewBox="0 0 20 20" fill="none" xmlns="http://www.w3.org/2000/svg">
<path fill-rule="evenodd" clip-rule="evenodd" d="M7.58471 0.188765C7.84548 0.376716 8 0.678564 8 1.00001V17C8 17.4304 7.72457 17.8126 7.31623 17.9487L1.31623 19.9487C1.01128 20.0503 0.676058 19.9992 0.41529 19.8113C0.154521 19.6233 0 19.3215 0 19V3.00001C0 2.56958 0.27543 2.18744 0.683772 2.05132L6.68377 0.051324C6.98872 -0.0503253 7.32394 0.000813857 7.58471 0.188765ZM2 3.72077V17.6126L6 16.2792V2.38743L2 3.72077Z" fill="#64748C"/>
<path fill-rule="evenodd" clip-rule="evenodd" d="M19.5847 0.188765C19.8455 0.376716 20 0.678564 20 1.00001V17C20 17.4304 19.7246 17.8126 19.3162 17.9487L13.3162 19.9487C13.0113 20.0503 12.6761 19.9992 12.4153 19.8113C12.1545 19.6233 12 19.3215 12 19V3.00001C12 2.56958 12.2754 2.18744 12.6838 2.05132L18.6838 0.051324C18.9887 -0.0503253 19.3239 0.000813857 19.5847 0.188765ZM14 3.72077V17.6126L18 16.2792V2.38743L14 3.72077Z" fill="#64748C"/>
<path fill-rule="evenodd" clip-rule="evenodd" d="M6.41529 0.188765C6.15452 0.376716 6 0.678564 6 1.00001V17C6 17.4304 6.27543 17.8126 6.68377 17.9487L12.6838 19.9487C12.9887 20.0503 13.3239 19.9992 13.5847 19.8113C13.8455 19.6233 14 19.3215 14 19V3.00001C14 2.56958 13.7246 2.18744 13.3162 2.05132L7.31623 0.051324C7.01128 -0.0503253 6.67606 0.000813857 6.41529 0.188765ZM12 3.72077V17.6126L8 16.2792V2.38743L12 3.72077Z" fill="#64748C"/>
</svg>
