<svg width="20" height="20" viewBox="0 0 20 20" fill="none" xmlns="http://www.w3.org/2000/svg">
<path fill-rule="evenodd" clip-rule="evenodd" d="M0 2C0 0.895432 0.89543 0 2 0H18C19.1046 0 20 0.89543 20 2V19C20 19.5523 19.5523 20 19 20H1C0.447715 20 0 19.5523 0 19V2ZM18 2L2 2V18H18V2Z" fill="white"/>
<path fill-rule="evenodd" clip-rule="evenodd" d="M4 5C4.55228 5 5 4.55228 5 4C5 3.44772 4.55228 3 4 3C3.44772 3 3 3.44772 3 4C3 4.55228 3.44772 5 4 5Z" fill="white"/>
<path fill-rule="evenodd" clip-rule="evenodd" d="M7 5C7.55228 5 8 4.55228 8 4C8 3.44772 7.55228 3 7 3C6.44772 3 6 3.44772 6 4C6 4.55228 6.44772 5 7 5Z" fill="white"/>
<path fill-rule="evenodd" clip-rule="evenodd" d="M10 5C10.5523 5 11 4.55228 11 4C11 3.44772 10.5523 3 10 3C9.44771 3 9 3.44772 9 4C9 4.55228 9.44771 5 10 5Z" fill="white"/>
<path fill-rule="evenodd" clip-rule="evenodd" d="M0 7C0 6.44772 0.447715 6 1 6H19C19.5523 6 20 6.44772 20 7C20 7.55228 19.5523 8 19 8H1C0.447715 8 0 7.55228 0 7Z" fill="white"/>
</svg>
