<svg width="16" height="23" viewBox="0 0 16 23" fill="none" xmlns="http://www.w3.org/2000/svg">
<path fill-rule="evenodd" clip-rule="evenodd" d="M7.99984 0.166504C3.81168 0.166504 0.416504 3.56168 0.416504 7.74984C0.416504 11.1674 2.19274 14.6415 3.84391 17.1595C4.68361 18.4401 5.52159 19.5188 6.14962 20.2776C6.46411 20.6576 6.72717 20.9589 6.91313 21.1668C7.00614 21.2708 7.07995 21.3515 7.13137 21.4071C7.15708 21.4349 7.1772 21.4565 7.19133 21.4715L7.20798 21.4892L7.21285 21.4943L7.2144 21.496L7.21495 21.4965C7.21516 21.4968 7.21535 21.497 7.99984 20.7498L7.21535 21.497L7.99984 22.3207L8.78432 21.497L7.99984 20.7498C8.78432 21.497 8.78451 21.4968 8.78472 21.4965L8.78528 21.496L8.78683 21.4943L8.7917 21.4892L8.80835 21.4715C8.82248 21.4565 8.8426 21.4349 8.86831 21.4071C8.91972 21.3515 8.99354 21.2708 9.08655 21.1668C9.2725 20.9589 9.53557 20.6576 9.85006 20.2776C10.4781 19.5188 11.3161 18.4401 12.1558 17.1595C13.8069 14.6415 15.5832 11.1674 15.5832 7.74984C15.5832 3.56168 12.188 0.166504 7.99984 0.166504ZM8.18087 18.8962C8.11818 18.972 8.05775 19.0443 7.99984 19.113C7.94192 19.0443 7.8815 18.972 7.81881 18.8962C7.22808 18.1825 6.44107 17.169 5.65577 15.9714C4.05693 13.5332 2.58317 10.5073 2.58317 7.74984C2.58317 4.7583 5.0083 2.33317 7.99984 2.33317C10.9914 2.33317 13.4165 4.7583 13.4165 7.74984C13.4165 10.5073 11.9427 13.5332 10.3439 15.9714C9.55861 17.169 8.77159 18.1825 8.18087 18.8962ZM7.99984 4.49984C6.20491 4.49984 4.74984 5.95491 4.74984 7.74984C4.74984 9.54476 6.20491 10.9998 7.99984 10.9998C9.79476 10.9998 11.2498 9.54476 11.2498 7.74984C11.2498 5.95491 9.79476 4.49984 7.99984 4.49984ZM6.9165 7.74984C6.9165 7.15153 7.40153 6.6665 7.99984 6.6665C8.59815 6.6665 9.08317 7.15153 9.08317 7.74984C9.08317 8.34815 8.59815 8.83317 7.99984 8.83317C7.40153 8.83317 6.9165 8.34815 6.9165 7.74984Z" fill="#2E60B3"/>
</svg>
