<svg width="42" height="42" viewBox="0 0 42 42" fill="none" xmlns="http://www.w3.org/2000/svg">
<g filter="url(#filter0_d_109_4623)">
<rect x="8" y="8" width="26" height="26" rx="8" fill="#2E60B3"/>
<path fill-rule="evenodd" clip-rule="evenodd" d="M19.1938 15.8876C18.7134 16.2127 18.3056 16.6782 17.8433 17.2759C17.5899 17.6036 17.1189 17.6638 16.7912 17.4104C16.4636 17.157 16.4034 16.686 16.6568 16.3583C17.132 15.7438 17.6617 15.1133 18.3531 14.6453C19.0663 14.1627 19.9165 13.875 21 13.875C23.6305 13.875 25.5 15.6862 25.5 17.422C25.5 18.9807 24.3645 20.6147 21.75 21.8586V23.25C21.75 23.6642 21.4142 24 21 24C20.5858 24 20.25 23.6642 20.25 23.25V21.375V20.8816L20.7032 20.6863C23.3913 19.5276 24 18.1981 24 17.422C24 16.7358 23.042 15.375 21 15.375C20.2085 15.375 19.6525 15.5772 19.1938 15.8876ZM21 25.8825C21.4142 25.8825 21.75 26.2183 21.75 26.6325V27C21.75 27.4142 21.4142 27.75 21 27.75C20.5858 27.75 20.25 27.4142 20.25 27V26.6325C20.25 26.2183 20.5858 25.8825 21 25.8825Z" fill="white"/>
</g>
<defs>
<filter id="filter0_d_109_4623" x="0" y="0" width="42" height="42" filterUnits="userSpaceOnUse" color-interpolation-filters="sRGB">
<feFlood flood-opacity="0" result="BackgroundImageFix"/>
<feColorMatrix in="SourceAlpha" type="matrix" values="0 0 0 0 0 0 0 0 0 0 0 0 0 0 0 0 0 0 127 0" result="hardAlpha"/>
<feOffset/>
<feGaussianBlur stdDeviation="4"/>
<feComposite in2="hardAlpha" operator="out"/>
<feColorMatrix type="matrix" values="0 0 0 0 0.235294 0 0 0 0 0.486275 0 0 0 0 0.898039 0 0 0 0.6 0"/>
<feBlend mode="normal" in2="BackgroundImageFix" result="effect1_dropShadow_109_4623"/>
<feBlend mode="normal" in="SourceGraphic" in2="effect1_dropShadow_109_4623" result="shape"/>
</filter>
</defs>
</svg>
