<svg width="15" height="15" viewBox="0 0 15 15" fill="none" xmlns="http://www.w3.org/2000/svg">
<path fill-rule="evenodd" clip-rule="evenodd" d="M3.06775 10.7165C4.35621 9.97499 5.91389 9.58329 7.50026 9.58329C9.08662 9.58329 10.6443 9.97499 11.9328 10.7165C13.2208 11.4577 14.1953 12.5253 14.646 13.7869C14.7854 14.1769 14.5822 14.6061 14.1921 14.7455C13.802 14.8848 13.3728 14.6816 13.2335 14.2915C12.9245 13.4268 12.2251 12.6154 11.1846 12.0166C10.1444 11.418 8.84901 11.0833 7.50026 11.0833C6.1515 11.0833 4.85608 11.418 3.81594 12.0166C2.77537 12.6154 2.07596 13.4268 1.76703 14.2915C1.62767 14.6816 1.19849 14.8848 0.808422 14.7455C0.418355 14.6061 0.215115 14.1769 0.354472 13.7869C0.805205 12.5252 1.77973 11.4577 3.06775 10.7165Z" fill="#1D2229"/>
<path fill-rule="evenodd" clip-rule="evenodd" d="M3.06775 10.7165C4.35621 9.97499 5.91389 9.58329 7.50026 9.58329C9.08662 9.58329 10.6443 9.97499 11.9328 10.7165C13.2208 11.4577 14.1953 12.5253 14.646 13.7869C14.7854 14.1769 14.5822 14.6061 14.1921 14.7455C13.802 14.8848 13.3728 14.6816 13.2335 14.2915C12.9245 13.4268 12.2251 12.6154 11.1846 12.0166C10.1444 11.418 8.84901 11.0833 7.50026 11.0833C6.1515 11.0833 4.85608 11.418 3.81594 12.0166C2.77537 12.6154 2.07596 13.4268 1.76703 14.2915C1.62767 14.6816 1.19849 14.8848 0.808422 14.7455C0.418355 14.6061 0.215115 14.1769 0.354472 13.7869C0.805205 12.5252 1.77973 11.4577 3.06775 10.7165Z" fill="black" fill-opacity="0.2"/>
<path fill-rule="evenodd" clip-rule="evenodd" d="M7.50022 2.08325C6.07348 2.08325 4.91688 3.23985 4.91688 4.66658C4.91688 6.09332 6.07348 7.24992 7.50022 7.24992C8.92695 7.24992 10.0835 6.09332 10.0835 4.66658C10.0835 3.23985 8.92695 2.08325 7.50022 2.08325ZM3.41688 4.66658C3.41688 2.41142 5.24505 0.583252 7.50022 0.583252C9.75538 0.583252 11.5835 2.41142 11.5835 4.66658C11.5835 6.92175 9.75538 8.74992 7.50022 8.74992C5.24505 8.74992 3.41688 6.92175 3.41688 4.66658Z" fill="#1D2229"/>
<path fill-rule="evenodd" clip-rule="evenodd" d="M7.50022 2.08325C6.07348 2.08325 4.91688 3.23985 4.91688 4.66658C4.91688 6.09332 6.07348 7.24992 7.50022 7.24992C8.92695 7.24992 10.0835 6.09332 10.0835 4.66658C10.0835 3.23985 8.92695 2.08325 7.50022 2.08325ZM3.41688 4.66658C3.41688 2.41142 5.24505 0.583252 7.50022 0.583252C9.75538 0.583252 11.5835 2.41142 11.5835 4.66658C11.5835 6.92175 9.75538 8.74992 7.50022 8.74992C5.24505 8.74992 3.41688 6.92175 3.41688 4.66658Z" fill="black" fill-opacity="0.2"/>
</svg>
