<svg width="24" height="24" viewBox="0 0 24 24" fill="none" xmlns="http://www.w3.org/2000/svg">
<path fill-rule="evenodd" clip-rule="evenodd" d="M9.9931 7.17581C9.45934 7.52724 9.00618 8.03052 8.49257 8.67669C8.21101 9.03092 7.68763 9.096 7.32357 8.82205C6.9595 8.5481 6.89262 8.03887 7.17417 7.68464C7.70222 7.0203 8.29072 6.33865 9.05904 5.83278C9.85145 5.31106 10.7961 5 12 5C14.9228 5 17 6.95808 17 8.8346C17 10.5196 15.7383 12.2862 12.8334 13.6309V15.1351C12.8334 15.5829 12.4603 15.9459 12 15.9459C11.5398 15.9459 11.1667 15.5829 11.1667 15.1351V13.1081V12.5747L11.6702 12.3635C14.657 11.1109 15.3333 9.6736 15.3333 8.8346C15.3333 8.09274 14.2689 6.62162 12 6.62162C11.1206 6.62162 10.5028 6.84023 9.9931 7.17581ZM12 17.9811C12.4603 17.9811 12.8334 18.3441 12.8334 18.7919V19.1892C12.8334 19.637 12.4603 20 12 20C11.5398 20 11.1667 19.637 11.1667 19.1892V18.7919C11.1667 18.3441 11.5398 17.9811 12 17.9811Z" fill="#2E60B3"/>
<rect x="1" y="1" width="22" height="22" rx="7" stroke="#2E60B3" stroke-width="2"/>
</svg>
