<svg width="30" height="30" viewBox="0 0 30 30" fill="none" xmlns="http://www.w3.org/2000/svg">
<path fill-rule="evenodd" clip-rule="evenodd" d="M15 0.333252C6.89986 0.333252 0.333374 6.89974 0.333374 14.9999C0.333374 23.1001 6.89986 29.6666 15 29.6666C23.1002 29.6666 29.6667 23.1001 29.6667 14.9999C29.6667 6.89974 23.1002 0.333252 15 0.333252ZM3.00004 14.9999C3.00004 8.3725 8.37262 2.99992 15 2.99992C21.6275 2.99992 27 8.3725 27 14.9999C27 21.6273 21.6275 26.9999 15 26.9999C8.37262 26.9999 3.00004 21.6273 3.00004 14.9999ZM15 8.33325C15.7364 8.33325 16.3334 8.93021 16.3334 9.66658V16.3333C16.3334 17.0696 15.7364 17.6666 15 17.6666C14.2637 17.6666 13.6667 17.0696 13.6667 16.3333V9.66658C13.6667 8.93021 14.2637 8.33325 15 8.33325ZM15 21.6666C15.7364 21.6666 16.3334 21.0696 16.3334 20.3333C16.3334 19.5969 15.7364 18.9999 15 18.9999C14.2637 18.9999 13.6667 19.5969 13.6667 20.3333C13.6667 21.0696 14.2637 21.6666 15 21.6666Z" fill="#3C7CE6"/>
</svg>
