<svg width="56" height="56" viewBox="0 0 56 56" fill="none" xmlns="http://www.w3.org/2000/svg">
<path fill-rule="evenodd" clip-rule="evenodd" d="M0.5 28C0.5 12.8122 12.8122 0.5 28 0.5C43.1878 0.5 55.5 12.8122 55.5 28C55.5 43.1878 43.1878 55.5 28 55.5C12.8122 55.5 0.5 43.1878 0.5 28ZM28 5.5C15.5736 5.5 5.5 15.5736 5.5 28C5.5 40.4264 15.5736 50.5 28 50.5C40.4264 50.5 50.5 40.4264 50.5 28C50.5 15.5736 40.4264 5.5 28 5.5ZM42.2678 18.7322C43.2441 19.7085 43.2441 21.2915 42.2678 22.2678L24.7678 39.7678C23.7915 40.7441 22.2085 40.7441 21.2322 39.7678L13.7322 32.2678C12.7559 31.2915 12.7559 29.7085 13.7322 28.7322C14.7085 27.7559 16.2915 27.7559 17.2678 28.7322L23 34.4645L38.7322 18.7322C39.7085 17.7559 41.2915 17.7559 42.2678 18.7322Z" fill="#098507"/>
</svg>
