<svg width="18" height="19" viewBox="0 0 18 19" fill="none" xmlns="http://www.w3.org/2000/svg">
<path fill-rule="evenodd" clip-rule="evenodd" d="M9 0C9.48924 0 9.98196 0.0399005 10.4059 0.12123C10.6179 0.161888 10.8254 0.215286 11.0134 0.285625C11.1841 0.349512 11.417 0.45558 11.614 0.639418C12.0179 1.01618 12.0398 1.64897 11.663 2.05278C11.3075 2.43384 10.724 2.47484 10.32 2.16168L10.3125 2.1588C10.2592 2.13884 10.1665 2.11176 10.0291 2.08542C9.75451 2.03274 9.3913 2 9 2C8.6087 2 8.24549 2.03274 7.97087 2.08542C7.83353 2.11176 7.74085 2.13884 7.68749 2.15881L7.67996 2.16168C7.276 2.47484 6.6925 2.43384 6.33698 2.05278C5.96021 1.64897 5.98214 1.01618 6.38595 0.639419C6.58299 0.45558 6.81588 0.349513 6.98663 0.285625C7.17463 0.215287 7.38213 0.161889 7.59408 0.12123C8.01804 0.0399007 8.51076 0 9 0ZM1.02624 6.01671C0.78926 6.00054 0.479624 6 0 6V4L0.0319831 4L0.095967 4H17.904L17.968 4L18 4V6C17.5204 6 17.2107 6.00054 16.9738 6.01671C16.7458 6.03227 16.6589 6.05888 16.6173 6.07612C16.3723 6.17761 16.1776 6.37229 16.0761 6.61732C16.0589 6.65893 16.0323 6.74576 16.0167 6.97376C16.0005 7.21074 16 7.52038 16 8V14L16 14.0658C16.0001 14.9523 16.0001 15.7161 15.9179 16.3278C15.8297 16.9833 15.631 17.6117 15.1213 18.1213C14.6117 18.631 13.9833 18.8297 13.3278 18.9179C12.7161 19.0001 11.9523 19.0001 11.0658 19L11 19H7L6.93417 19C6.04768 19.0001 5.28387 19.0001 4.67221 18.9179C4.01669 18.8297 3.38834 18.631 2.87868 18.1213C2.36902 17.6117 2.17027 16.9833 2.08214 16.3278C1.9999 15.7161 1.99995 14.9523 2 14.0658L2 14V8C2 7.52038 1.99946 7.21074 1.98329 6.97376C1.96773 6.74576 1.94112 6.65893 1.92388 6.61732C1.82239 6.37229 1.62771 6.17761 1.38268 6.07612C1.34107 6.05888 1.25424 6.03227 1.02624 6.01671ZM14.0213 6.83762C14.0405 6.55764 14.079 6.27761 14.1728 6H3.8272C3.92099 6.27761 3.95955 6.55764 3.97865 6.83762C4.00002 7.15087 4.00001 7.52936 4 7.96801L4 8V14C4 14.9711 4.00212 15.5988 4.06431 16.0613C4.12262 16.495 4.21677 16.631 4.29289 16.7071C4.36902 16.7832 4.50496 16.8774 4.9387 16.9357C5.40121 16.9979 6.02892 17 7 17H11C11.9711 17 12.5988 16.9979 13.0613 16.9357C13.495 16.8774 13.631 16.7832 13.7071 16.7071C13.7832 16.631 13.8774 16.495 13.9357 16.0613C13.9979 15.5988 14 14.9711 14 14V8V7.96801V7.96797C14 7.52934 14 7.15086 14.0213 6.83762ZM6 13C6 13.5523 6.44772 14 7 14C7.55228 14 8 13.5523 8 13L8 10C8 9.44771 7.55228 9 7 9C6.44771 9 6 9.44772 6 10L6 13ZM10 13C10 13.5523 10.4477 14 11 14C11.5523 14 12 13.5523 12 13V10C12 9.44771 11.5523 9 11 9C10.4477 9 10 9.44772 10 10V13Z" fill="#C02C0B"/>
</svg>
