<svg width="19" height="19" viewBox="0 0 19 19" fill="none" xmlns="http://www.w3.org/2000/svg">
<path fill-rule="evenodd" clip-rule="evenodd" d="M16.1213 1.70705C14.9497 0.535475 13.0503 0.535477 11.8787 1.70705L0.878679 12.707C0.31607 13.2697 0 14.0327 0 14.8284V18.9999H4.17157C4.96722 18.9999 5.73028 18.6839 6.29289 18.1213L17.2929 7.12126C18.4645 5.94969 18.4645 4.0502 17.2929 2.87862L16.1213 1.70705ZM13.2929 3.12126C13.6834 2.73074 14.3166 2.73074 14.7071 3.12126L15.8787 4.29284C16.2692 4.68336 16.2692 5.31652 15.8787 5.70705L15 6.58573L12.4142 3.99994L13.2929 3.12126ZM11 5.41416L2.29289 14.1213C2.10536 14.3088 2 14.5632 2 14.8284L2 16.9999H4.17157C4.43679 16.9999 4.69114 16.8946 4.87868 16.707L13.5858 7.99994L11 5.41416Z" fill="#2E60B3"/>
</svg>
