<svg width="56" height="56" viewBox="0 0 56 56" fill="none" xmlns="http://www.w3.org/2000/svg">
<path fill-rule="evenodd" clip-rule="evenodd" d="M28 0.5C12.8122 0.5 0.5 12.8122 0.5 28C0.5 43.1878 12.8122 55.5 28 55.5C43.1878 55.5 55.5 43.1878 55.5 28C55.5 12.8122 43.1878 0.5 28 0.5ZM5.5 28C5.5 15.5736 15.5736 5.5 28 5.5C40.4264 5.5 50.5 15.5736 50.5 28C50.5 40.4264 40.4264 50.5 28 50.5C15.5736 50.5 5.5 40.4264 5.5 28ZM28 15.5C29.3807 15.5 30.5 16.6193 30.5 18V30.5C30.5 31.8807 29.3807 33 28 33C26.6193 33 25.5 31.8807 25.5 30.5V18C25.5 16.6193 26.6193 15.5 28 15.5ZM28 40.5C29.3807 40.5 30.5 39.3807 30.5 38C30.5 36.6193 29.3807 35.5 28 35.5C26.6193 35.5 25.5 36.6193 25.5 38C25.5 39.3807 26.6193 40.5 28 40.5Z" fill="#C02C0B"/>
</svg>
