<svg width="17" height="14" viewBox="0 0 17 14" fill="none" xmlns="http://www.w3.org/2000/svg">
<path fill-rule="evenodd" clip-rule="evenodd" d="M8.5 0.25C8.73272 0.25 8.95226 0.358035 9.09425 0.54243L12.834 5.39929L15.039 3.68113C15.2651 3.50499 15.5717 3.47305 15.8292 3.59884C16.0867 3.72463 16.25 3.98616 16.25 4.27273V13C16.25 13.4142 15.9142 13.75 15.5 13.75H1.5C1.08579 13.75 0.75 13.4142 0.75 13V4.27273C0.75 3.98616 0.913301 3.72463 1.17079 3.59884C1.42828 3.47305 1.73494 3.50499 1.96099 3.68113L4.16597 5.39929L7.90575 0.54243C8.04774 0.358035 8.26728 0.25 8.5 0.25ZM8.5 2.22932L4.89425 6.91212C4.77244 7.07031 4.59257 7.17341 4.3945 7.19857C4.19643 7.22373 3.99651 7.16887 3.83901 7.04615L2.25 5.80795V12.25H14.75V5.80795L13.161 7.04615C13.0035 7.16887 12.8036 7.22373 12.6055 7.19857C12.4074 7.17341 12.2276 7.07031 12.1058 6.91212L8.5 2.22932Z" fill="#1D2229"/>
<path fill-rule="evenodd" clip-rule="evenodd" d="M8.5 0.25C8.73272 0.25 8.95226 0.358035 9.09425 0.54243L12.834 5.39929L15.039 3.68113C15.2651 3.50499 15.5717 3.47305 15.8292 3.59884C16.0867 3.72463 16.25 3.98616 16.25 4.27273V13C16.25 13.4142 15.9142 13.75 15.5 13.75H1.5C1.08579 13.75 0.75 13.4142 0.75 13V4.27273C0.75 3.98616 0.913301 3.72463 1.17079 3.59884C1.42828 3.47305 1.73494 3.50499 1.96099 3.68113L4.16597 5.39929L7.90575 0.54243C8.04774 0.358035 8.26728 0.25 8.5 0.25ZM8.5 2.22932L4.89425 6.91212C4.77244 7.07031 4.59257 7.17341 4.3945 7.19857C4.19643 7.22373 3.99651 7.16887 3.83901 7.04615L2.25 5.80795V12.25H14.75V5.80795L13.161 7.04615C13.0035 7.16887 12.8036 7.22373 12.6055 7.19857C12.4074 7.17341 12.2276 7.07031 12.1058 6.91212L8.5 2.22932Z" fill="black" fill-opacity="0.2"/>
</svg>
