<svg width="20" height="20" viewBox="0 0 20 20" fill="none" xmlns="http://www.w3.org/2000/svg">
<path fill-rule="evenodd" clip-rule="evenodd" d="M8.49298 2.68377C8.62909 2.27543 9.01123 2 9.44166 2H10.5586C10.9891 2 11.3712 2.27543 11.5073 2.68377L11.9228 3.93035L12.0614 4.34601L12.4609 4.52593C12.8311 4.69266 13.1817 4.89601 13.5078 5.13149L13.8637 5.3884L14.2937 5.30041L15.5826 5.03664C16.0043 4.95035 16.4339 5.14358 16.6491 5.51634L17.2076 6.48366L17.968 6.04466L17.2076 6.48366C17.4228 6.85642 17.3753 7.32508 17.0898 7.64713L16.2169 8.6315L15.9265 8.95897L15.97 9.39448C15.9899 9.59333 16.0001 9.79532 16.0001 10C16.0001 10.2047 15.9899 10.4067 15.97 10.6055L15.9265 11.041L16.2169 11.3685L17.0898 12.3529C17.3753 12.6749 17.4228 13.1436 17.2076 13.5163L16.6491 14.4837C16.4339 14.8564 16.0043 15.0497 15.5826 14.9634L14.2937 14.6996L13.8637 14.6116L13.5078 14.8685C13.1817 15.104 12.8311 15.3073 12.4609 15.4741L12.0614 15.654L11.9228 16.0696L11.5073 17.3162C11.3712 17.7246 10.9891 18 10.5586 18H9.44166C9.01123 18 8.62909 17.7246 8.49298 17.3162L8.07745 16.0696L7.9389 15.654L7.5394 15.4741C7.16916 15.3073 6.81864 15.104 6.49247 14.8685L6.13662 14.6116L5.70664 14.6996L4.41769 14.9634L4.61817 15.9431L4.41769 14.9634C3.996 15.0496 3.5664 14.8564 3.35118 14.4837L2.7927 13.5163C2.57749 13.1436 2.62495 12.6749 2.91052 12.3529L3.78341 11.3685L4.0738 11.041L4.03025 10.6055C4.01036 10.4067 4.00015 10.2047 4.00015 10C4.00015 9.79532 4.01036 9.59333 4.03025 9.39448L4.0738 8.95897L3.78341 8.6315L2.91052 7.64713C2.62495 7.32508 2.57749 6.85642 2.7927 6.48366L3.35118 5.51634C3.5664 5.14358 3.996 4.95035 4.41769 5.03664L5.70664 5.30041L6.13662 5.3884L6.49247 5.13149C6.81864 4.89601 7.16917 4.69266 7.5394 4.52593L7.9389 4.34601L8.07745 3.93035L8.49298 2.68377ZM9.44166 0C8.15037 0 7.00396 0.82629 6.59561 2.05132L6.31317 2.89864C6.10116 3.00891 5.89475 3.12837 5.69448 3.25647L4.81865 3.07725C3.55358 2.81837 2.26478 3.39805 1.61913 4.51634L1.06065 5.48366C0.415006 6.60195 0.557386 8.00792 1.41412 8.97407L2.00795 9.64374C2.00277 9.76191 2.00015 9.88068 2.00015 10C2.00015 10.1193 2.00277 10.2381 2.00795 10.3563L1.41412 11.0259C0.557385 11.9921 0.415005 13.398 1.06065 14.5163L1.61913 15.4837C2.26478 16.6019 3.55357 17.1816 4.81865 16.9228L5.69448 16.7435C5.89475 16.8716 6.10116 16.9911 6.31317 17.1014L6.59561 17.9487C7.00396 19.1737 8.15037 20 9.44166 20H10.5586C11.8499 20 12.9963 19.1737 13.4047 17.9487L13.6871 17.1014C13.8991 16.9911 14.1055 16.8716 14.3058 16.7435L15.1816 16.9228C16.4467 17.1816 17.7355 16.602 18.3812 15.4837L18.9396 14.5163C19.5853 13.3981 19.4429 11.9921 18.5862 11.0259L17.9923 10.3563C17.9975 10.2381 18.0001 10.1193 18.0001 10C18.0001 9.88068 17.9975 9.76191 17.9923 9.64374L18.5862 8.97407C19.4429 8.00792 19.5853 6.60195 18.9396 5.48366L18.3812 4.51634C17.7355 3.39805 16.4467 2.81837 15.1816 3.07725L14.3058 3.25647C14.1055 3.12837 13.8991 3.00891 13.6871 2.89864L13.4047 2.05132C12.9963 0.82629 11.8499 0 10.5586 0L9.44166 0ZM10.0001 6C7.79099 6 6.00013 7.79086 6.00013 10C6.00013 12.2091 7.79099 14 10.0001 14C12.2093 14 14.0001 12.2091 14.0001 10C14.0001 7.79086 12.2093 6 10.0001 6ZM8.00013 10C8.00013 8.89543 8.89556 8 10.0001 8C11.1047 8 12.0001 8.89543 12.0001 10C12.0001 11.1046 11.1047 12 10.0001 12C8.89556 12 8.00013 11.1046 8.00013 10Z" fill="#2E60B3"/>
</svg>
